<svg xmlns="http://www.w3.org/2000/svg" width="1600" height="400" viewBox="0 0 1600 400">
  <g fill="none" fill-rule="evenodd">
    <polygon fill="#04476D" points="242 0 323 0 432 179 542 0 619 0 864 400 771 400 584 72 477 256 566 400 471 400 432 332 397 400 299 400 387 256 285 72 97 400 0 400"/>
    <polygon fill="#F15D4E" points="666 0 761 0 952 330 1141 0 1234 0 991 400 909 400"/>
    <polygon fill="#04476D" points="1032 0 1127 0 1318 330 1507 0 1600 0 1357 400 1275 400" transform="matrix(1 0 0 -1 0 400)"/>
  </g>
</svg>
